/* XPM */
static char *_3b964bdd2844727ef09cfcc0e5e02e2qCNvtoAVRYKltp57[] = {
/* columns rows colors chars-per-pixel */
"74 74 256 2 ",
"   c #080501",
".  c #170702",
"X  c #161404",
"o  c #0F150F",
"O  c #250200",
"+  c #2B0100",
"@  c #290C03",
"#  c #330100",
"$  c #380802",
"%  c #281608",
"&  c #351605",
"*  c #2A1A16",
"=  c #351C14",
"-  c #282419",
";  c #392619",
":  c #302C09",
">  c #3B372A",
",  c #322E2A",
"<  c #191F22",
"1  c #480701",
"2  c #580500",
"3  c #471704",
"4  c #571802",
"5  c #491715",
"6  c #670800",
"7  c #750700",
"8  c #691902",
"9  c #781902",
"0  c #6E1D12",
"q  c #482806",
"w  c #572704",
"e  c #593406",
"r  c #462919",
"t  c #562917",
"y  c #563419",
"u  c #493614",
"i  c #672703",
"p  c #792804",
"a  c #693505",
"s  c #783703",
"d  c #772A13",
"f  c #673817",
"g  c #7A3716",
"h  c #6A2912",
"j  c #473527",
"k  c #593827",
"l  c #493835",
"z  c #54322C",
"x  c #673826",
"c  c #753926",
"v  c #693329",
"b  c #3A4735",
"n  c #554A0E",
"m  c #7C4602",
"M  c #6F4816",
"N  c #4C4437",
"B  c #564639",
"V  c #53462D",
"C  c #674637",
"Z  c #744B2C",
"A  c #6C651C",
"S  c #5D3C43",
"D  c #3D4F43",
"F  c #574A47",
"G  c #54524C",
"H  c #685147",
"J  c #716A58",
"K  c #696D66",
"L  c #6D7369",
"P  c #72746A",
"I  c #78786A",
"U  c #787A76",
"Y  c #6C7D77",
"T  c #5A645A",
"R  c #333A40",
"E  c #861602",
"W  c #862706",
"Q  c #873705",
"!  c #943804",
"~  c #873919",
"^  c #963819",
"/  c #902C15",
"(  c #A3390F",
")  c #893A24",
"_  c #973A24",
"`  c #863A31",
"'  c #A53C26",
"]  c #864905",
"[  c #984605",
"{  c #985505",
"}  c #86451A",
"|  c #97461A",
" . c #985718",
".. c #89560E",
"X. c #A8570A",
"o. c #A85716",
"O. c #AE4F12",
"+. c #966612",
"@. c #A96613",
"#. c #894527",
"$. c #984628",
"%. c #895727",
"&. c #985628",
"*. c #874837",
"=. c #9A5637",
"-. c #904F38",
";. c #A54529",
":. c #A85825",
">. c #B45826",
",. c #A84B33",
"<. c #A65838",
"1. c #B55335",
"2. c #906830",
"3. c #AB6627",
"4. c #B96827",
"5. c #A96639",
"6. c #B56735",
"7. c #BA7636",
"8. c #B7792C",
"9. c #D05B1B",
"0. c #EA5C15",
"q. c #DA6A1A",
"w. c #D97719",
"e. c #CC6E15",
"r. c #E56919",
"t. c #E9771A",
"y. c #F36B19",
"u. c #CE5B28",
"i. c #C96726",
"p. c #D86928",
"a. c #CA7826",
"s. c #D77727",
"d. c #CB6934",
"f. c #D96A36",
"g. c #C97636",
"h. c #D87638",
"j. c #E96A27",
"k. c #F66A27",
"l. c #E87828",
"z. c #F57528",
"x. c #E56B36",
"c. c #F36C36",
"v. c #E87637",
"b. c #F77637",
"n. c #E85E2B",
"m. c #945645",
"M. c #AE5A47",
"N. c #996747",
"B. c #986955",
"V. c #88755C",
"C. c #906F52",
"Z. c #A86848",
"A. c #B8724A",
"S. c #A86A57",
"D. c #A87557",
"F. c #B97656",
"G. c #AF6F4B",
"H. c #877A67",
"J. c #8D7768",
"K. c #AB7767",
"L. c #C96A45",
"P. c #D66B47",
"I. c #C97747",
"U. c #D87647",
"Y. c #D17655",
"T. c #E67946",
"R. c #F57743",
"E. c #EA7251",
"W. c #CA7B66",
"Q. c #C05D40",
"!. c #79867B",
"~. c #77977C",
"^. c #728873",
"/. c #B48A3B",
"(. c #99892F",
"). c #D7861A",
"_. c #D98728",
"`. c #C98739",
"'. c #D78938",
"]. c #D28F30",
"[. c #E68629",
"{. c #E78734",
"}. c #F58637",
"|. c #EE9533",
" X c #EDA832",
".X c #B58A4D",
"XX c #878E78",
"oX c #AD9863",
"OX c #C78646",
"+X c #D78847",
"@X c #D79A49",
"#X c #D19053",
"$X c #E88746",
"%X c #E79A4A",
"&X c #F69848",
"*X c #E79756",
"=X c #F68E4F",
"-X c #D5A753",
";X c #FBA84A",
":X c #F9A857",
">X c #FDB559",
",X c #EAA84E",
"<X c #D4B470",
"1X c #FCA965",
"2X c #FDB868",
"3X c #FBB876",
"4X c #EAAE71",
"5X c #DC9864",
"6X c #FAD557",
"7X c #F3CA51",
"8X c #E9C966",
"9X c #FCC869",
"0X c #F8D865",
"qX c #FBC876",
"wX c #EDD272",
"eX c #E9D564",
"rX c #E5C439",
"tX c #6C7786",
"yX c #788B87",
"uX c #7C9C85",
"iX c #75958C",
"pX c #7C958D",
"aX c #769A8E",
"sX c #7C9A8D",
"dX c #779385",
"fX c #749492",
"gX c #7C9693",
"hX c #769B93",
"jX c #7C9992",
"kX c #7C969A",
"lX c #7B9A9A",
"zX c #769A9A",
"xX c #718F8D",
"cX c #79A191",
"vX c #7C95A5",
"bX c #7EA1A3",
"nX c #848C85",
"mX c #829386",
"MX c #8A9385",
"NX c #83958C",
"BX c #8B948B",
"VX c #819A8C",
"CX c #869A87",
"ZX c #929689",
"AX c #829593",
"SX c #839A94",
"DX c #889998",
"FX c #8C9494",
"GX c #85A398",
"HX c #91A595",
"JX c #8499A3",
"KX c #939CA1",
"LX c #8EA5A6",
"PX c #FBBD85",
"IX c #F0CA89",
"UX c #EDD492",
/* pixels */
"aXaXsXsXuXuXsXsXsXgXgXgXgXgXjXsXuXsXpXAXSXCX~.XXXXSXJXvXvXkXCXXXMXBXNXsXsXaXhXgXlXDXJXDXAXDXJXkXlXfXbXlXiXsXHX!.mXCXMXNXNXAXSXkXgXhXhXhXjXjXjXjXjXjX",
"hXhXaXsXsXsXsXpXgXgXgXgXAXjXVXsXVXsXSXpXpXyX~.uX~.iXlXJXJXxX~.XXBXBXVXsXaXaXaXhXjXyXAXKXDXAXpXgXSXSXfXgXGXgX^.VXSXNXNXNXDXSXSXgXhXhXhXhXjXjXjXjXjXjX",
"kXlXgXjXjXhXgXgXkXkXgXjXjXVXVXVX~.dXSXyXDXJXLXxXcXcXhXxXiXSXDXNXAXAXgXhXhXaXaXsXuXCXZXBXdXsXGXcX!.HXAXyXfXLXfXgXgXiXyXpXgXgXkXJXhXhXhXhXjXjXjXjXjXjX",
"kXkXkXkXjXgXkXkXkXkXkXgXjXVXuXVXHXAXDXJXDXfXkXlXhXiXaXcXSXpXAXDXgXgXgXhXhXaXsXuXCX~.CXCX~.~.~.uXBX!.FXDXgXkXxXlXlXlXlXSXgXxXgXSXgXaXhXhXjXjXjXjXjXjX",
"vXkXkXkXjXgXgXkXkXkXkXkXgXjXjXSXAXkXyXyXyXSXdX^.VXcXjXgXkXSXAXdXaXaXaXhXAXAXNXNXmXCX~.~.~.GXHXyXnXT U U DXAXJXlXfXfXkXSXSXMXMXMXNXpXjXjXjXjXjXjXjXjX",
"vXkXkXjXjXaXaXaXgXgXkXkXkXkXkXSXSXAXDXKXXXV : : V J mXSXgXpXVXGXaXaXaXsXAXFXBXNXdXuXcXuXCXMXI B & ; j % B H nXNXGXkXfXiXVXZXMXMXNXpXgXjXjXjXjXjXjXjX",
"kXkXjXsXsXuXuXuXsXhXjXkXkXDXJXDXxXLXnX: : n (.(.A : % G BXGXdX~.hXhXpXNXNXNXVXhXzXxXfXDXI z 1 8 <.A.I.&.p $ f V XXAXJXvXlXjXNXNXVXAXAXgXgXgXjXjXjXjX",
"gXgXsXsXuXuXuXuXsXjXAXAXSXDXDXAXHXb X % <X8X0X0X8X-Xn     T ZXCXVXAXNXNXNXVXjXlXkXLXFXl O 4 1.P.f.x.v.v.p.p.g.# O N yXDXSXkXAXAXAXAXAXAXAXgXjXjXjXjX",
"pXpXsXsXuXuXsXsXpXSXSXNXBXZX^.J X : <XwX0X7X6X6X7X6X0X8XoX: . X U !.FXDXxXLXJXDXU H + 1 ^ U.T.c.k.k.k.k.0.z.v.h.| 4 & = I nXFXAXFXFXNXAXgXpXSXpXhXhX",
"sXsXsXsXaXhXgXjXLXSX!.ZXXXn X A 2.wXeX6X0X6X7XrX6X7X7X0XwXIXoXH . j N K DXDXT G & 4 d U.v.j.r.k.y.k.y.y.k.k.j.b.x.$X6.g $ ; G K yXDXAXNXAXAXSXiXhXhX",
"uXsXsXjXkXkXvXvXJXDXI : : n (.8XeX0X6XrX7X7X6X6X7X0X6X0X9XqXm .XA oXu % ; ; = 5 -.I.d.f.q.z.z.y.k.k.k.c.R.c.j.y.y.z.j.v.6.#.x % , Y FXAXAXpXgXhXhXhX",
"uXsXjXkXvXvXvXJXtXR X . UXwX8X0X7X7X6X6XrX0X6X7X8X8X0X9X].{ ].8.+.8XwXIXN.+ # $ .XA.+Xh.v.z.y.y.b.k.c.R.x.R.b.k.y.y.y.j.T.A.B..   K DXNXAXpXpXjXhXhX",
"sXsXjXgXkXvXvXJXtX< X   oX<X8X8X9X0X7X0X0X7XeXeXUX<X-Xw `.a.).e.o.*X'.,X>X9X,Xw w # =.:.d.n.k.k.0.k.j.b.x.b.j.k.k.j.j.v.$.1 3 @ * yXFXyXAXSXpXpXhXhX",
"jXjXjXgXgXkXkXAXU - J C q e 2.+.qX8XwX8X8X8XwXIX2.q 2...{ @.{.e.o.*Xa.s.[.[.;X>X-X2.%.1 ! ( n.c.k.b.j.c.b.c.9.R.R.h.^ ~ 1 4 x k * U FXyXFXSXpXjXhXhX",
"kXgXjXsXsXuXmXmXP N H.J.m.%.w # M %.<XUXwXUXA e @ q -X-X8.X.Q g.3.*X$Xp.j.c.j.=X{.2X2XOX .# 8 8 L.f.v.p.j.j.v.P.| 8 # 4 4 c h x . K FXFXDXpXpXSXhXhX",
"kXgXjXsXuXuXmXXXL ; C.B.S.S.S.Z.-.. & @ oX@ . C V e -X`.qX2X3X9 i o.g.h.x.R.n.b.j.l.s.@X8.#XUX# 1 6 h.h.f.f.U.2 1 0 Z c x f 8 4 j U FXFXDXSXpXjXhXhX",
"jXSXVXNXVXVXVXNXI r -.4 Z.$.S.Z.D.N.%.3 . j V B V q *Xs.l.&X:X1X>Xa.[ [ i.L.P.R.k.k.[.e.{ -X4X2X2X{ i 1 } 1 1 2 ) ~ h f f 1 Y.~ = P BXNXVXpXhXhXhXhX",
"jXjXVXVXVXAXAXBXH.k F.6.L.;.W ~ Z.Z.G.N.@ F l V ; 3 *Xl.q.q.l.s.;X|.>X'.7.| 1.( R.l.l.{.{ '.s.[.&X%X3X2.e & c c d _ 8 } M &./ _ = P BXNXVXaXhXaXjXjX",
"gXjXVXVXVXNXNXMXV.y OXU.f.u.9 1.1.9 $.K.$ z = $ k a $Xl.l.l.t.w.l.t.|.[.:Xg.OX3.Q { 3.7.[ =Xb.z.j.=X=X5X%.w f c 0 / 9 ,.~ $.;.) & K MXmXVXsXhXhXjXjX",
"gXgXVXVXVXNXBXZXV.w I.h.T.x.9 f.P.E.Y.$ + r C + k 3 Q W s.{.e.l.p.l.l.w._.{ @XqX9X@.i ] :.*Xv.j.b.j.f.I.~ 4 c 1 0 ,.9 ,.;._ ) c = P BXmXVXaXjXhXjXjX",
"kXgXpXVXVXVXNXZXV.e 3.>.h.f.7 T.v.v.f.Y.$ k x + C w 4X2X{ s 3.4.U.h.=Xl.s.[ >X]. X>X9X]. . .3.4.p.l.v.U.^ 8 2 $.~ $._ ,.) ) c y ; U ZXNXVXpXhXhXgXgX",
"gXjXVXVXVXAXAXBXJ y %.o.O.>.2 L.f.x.h.I.4 k x @ k 3 7.:X1X*XOX6.| >.f.i.$X[ 2Xa.).e.|.;X2X+Xg.4.X.X.'.4.p ;./ ;.<.d ~ ) d h N.& ; I BXmXpXpXjXjXgXgX",
"AXVXNXNXAXgXgXAXK k N.G.=.=.4 ) U.d.T.Y.# C v $ 3 4 u.c.b.$X=X3Xo.8.[ [ 6.} 4X7.a.w.t.r.l.}.>X2X@X+.m ..} p ^ ;.$.~ 1 p ) -.-.+ % K nXyXVXaXjXjXgXgX",
"AXVXNXNXgXkXkXgXU j C.S.Z.S.K.B.p ! L.L.1 v $ k k d u.k.k.k.j.s.{ qX2X:Xp p 4X7.h.s.r.j.l.j.t.w.%XqXa 4X1 ~ ,.^ 8 2 1.^ ;._ *.1 = P BXNXVXaXpXiXjXjX",
"VXVXNXNXgXgXlXgX!.; K.N.S.Z.B.S.G.5.W d + r F B C h u.c.k.k.v.a.+.-X'.;X2X:X4.{ [ >.f.T.x.j.y.y.j.$Xi IX%.i 9 W / ;.| ^ ,._ ) 1 ; P BXBXVXpXpXjXgXgX",
"AXVXNXNXgXhXkXAXP % f A.<.F.F.S.Z.G.<.N.= B N N j t [ O.O.p.s.g...-Xa.w.}.&X&X2Xs.$XO.( O.=Xj.k.b.p.s 4XZ M 2 Q.;.^ | :.W 8 ~ t ; P MXNXNXaXhXhXhXgX",
"gXgXVXpXsXgXgXBXI y 5.+X9 O.1.6.6.6.5.N.% N N F N : .X@X@.m  .7.2.5Xh.l.r.z.z.l.}.;X:X*X4.Q Q h.R.f.s 4Xa M $.' ;./ | i 4 g i *.; I MXmXVXaXhXaXhXhX",
"gXgXsXpXsXVXVXMXV.f I.d.p.u.7 P.>.6.3.N.. N B B   % 2.qX8XqXm s &.4Xd.p.b.z.q.z.z.t.w.2X8.OXm i X.4.i IXM 4 ,.,.^ W 2 i } } ~ -.; I BXNXNXaXhXaXhXhX",
"lXgXsXVXsXVXVXMXJ.e +Xd.v.v.E d.W ^ $.D.@ j ; . C 3 8.a.a.&X>X1Xs  .Q >.>.f.$Xx.r.q.s.s.[ `.>X9X@X+.e .Xe a $./ W 9 $.} } $._ ` = P ZXNXVXpXhXjXhXhX",
"gXgXsXVXsXsXAXMXJ M I.h.R.x.E E.P.P.1.Z.+ z x # x w i.l.[.l.q.&X4.3X'.'.@.[ O.i.s.{.e.'.{ %Xw.[.].8XOX.Xs a 4 ,.^ ' p ~ &.) / 0 @ K BXNXVXpXjXjXhXhX",
"jXgXVXVXpXjXgXNXI O =.I.U.P.9 Y.T.f.f.U.1 v x O c i p.r.j.j.b.i.@.@X].>X>X:X'.! ! o.OX/. .@X[.t.t.}.}.1X6.g h $.$._ / $.g h 1 S.% L BXNXVXaXjXjXjXjX",
"hXjXsXsXaXaXgXAXU r D.1 8 Y.8 L.U.9.v.f.2 c x + x 4 W v.j.v.p.g. .,Xe.w.w.&X2X1X'.Q m .X..OXv.z.z.0.k.R.W ~ #.#.$._ 9 / 8 W.g *.; I ZXNXVXsXjXiXjXhX",
"zXhXaXuXuXsXAXFXP j V.D.N.#.0 $.>.s.h.d.1 x Z . j & 5Xo.O.[ >.7.3.@Xs.l.z.r.l.{.;X>X9X..] 6.4.f.p.z.b.f.! ~ &.~ ~ p =.9 ;.' _ *.; U MXmXVXGXhXhXhXjX",
"zXhXaXsXsXsXAXAXU > V.B.N.F.m.$.| [ >.+X# t k j B q 4X1X1X+X+X] m 3.s.j.j.z.l.s.w._.%X:X`.3.4.[ X.e.d.+Xs ~ ) ) d 8 $.<.;./ ,.*.% I MXNXVXSXiXhXhXhX",
"hXhXsXsXaXhXgXgXK j C.Z.G.Z.N.Z.Z.Z.<.h 5 F N B V f $Xq.}.|.>X,X-X..{ [ p.v.h.x.j.}.s.s.{ ].qX,X-X+.a +.M w 4 2 ^ _ / ^ _ #.M q X P MXNXVXjXiXhXjXjX",
"aXsXVXAXgXlXzXaXL X %.3.:.5.F.N.S.S.S.B.% F l B k w 1Xq.t.[.)._.2X2X>XQ p o.U.d.x.l.s.a.{ ].).).7X9XqXm q & Z.~ ;.^ / $.^ g + & % I MXNXpXjXiXhXjXjX",
"sXsXVXAXkXkXzXaXI M 7.! ! | %.D.S.S.m.K.. F H S H # *X$Xq.e.l.j.r.l.;X;XqX3.| | o.4.`.8.{ %Xw.t.t.}.=X1X .M } $.$./ ^ W 7 _ d # ; U MXNXpXjXiXjXjXjX",
"sXsXAXAXkXkXzXpXXXe +Xv.p.d.p h d M.D.B.; l S 5 z 5  .[ h.h.v.b.z.z.r.w.%X{ OX4X+X{ ] +.] `.}.z.y.k.c.T.| } $.$.^ W 2 p ^ _ $.4 ; !.MXNXpXSXpXjXjXjX",
"aXaXVXAXkXkXkXBXV.a U.x.R.x.6 Y.L.Q ] 2.. z z O z r 5X/.s Q h.p.x.v.l.w._.[ '.,X>X>X>X/.s ] h.p.z.z.j.f.Q | ^ 9 2 $.g } =.$.) 1 % I BXNXNXSXiXjXjXgX",
"hXaXsXsXgXAXAXBXV.f Y.f.x.E.7 E.U.d.+Xi $ x x + C 3 5X3X3X`.Q ! d.i.s._.a.{ '.;Xw.w.;X2X3X7.! [ e.e.h.U.| 9 W 9 1.| } %.g #.d 1 . L BXNXVXjXiXjXjXgX",
"hXhXsXuXsXNXBXZXV.3 =.;.P.E.E P.T.x.x.T.2 w f @ Z 4 4.l.&X&XqX,Xm ] @.@.8.{ 7.1Xl.z.z.l.&X&X2X>X@.@.] 8.s 1 Y.^ ' ^ } %.i } 4 N.= L MXmXVXsXjXhXgXgX",
"hXhXsXuXuXmXBXBXJ.r N.#.<.Q 2 E.T.n.c.x.2 #.f O t 4 p.0.r.t._.].+.-X@X8.m s #X*Xv.j.b.0.l.[.[.|.].>Xs 7.w g $.;.1._ ~ 1 } ~ g Z ; P ZXNXVXsXhXhXgXgX",
"kXgXsXuXuXCXNXBXK N V.C.N.=.G.2 P.E.E.E.2 v c + 3 4 p.k.b.z.q.a.{ ,X;X2XqX#XM a 3.h.x.v.l.q.t.w.}.a.p 3X2.M ~ _ E 6 p $.~ $.<.*.= I ZXNXSXaXhXhXgXgX",
"kXjXuXuXuXuXVXNX!.- V.XXC.N.N.Z.$.6 1.M.2 5 5 v z f O.p.j.p.v.a.@.|.s.w.h.IX4X4Xs [ i.i.i.l.r.t.j.p.p 3Xa f #.9 7 / ^ | ^ $._ *.% L BXNXVXaXhXhXgXgX",
"jXjXsXuXuXsXsXNXP X C.2.D.G.N.D.D.D.Z.x O ; H S G j %.:.[ O.h.d.{ %Xs.}.l.p.&X;X>X>X@.@.Q [ T.v.v.v.p PXM 3 d 9 ' ;.~ #.} #.4 Z % K BXNXVXaXhXjXjXjX",
"jXsXVXVXsXaXjXVXI u D.4 3.5.N.D.N.N.D.C.; G l G F ; <X4X@X+XO.Q  .1Xs.q.b.z.q.w.[.|.%X,X7.7.O.! O.4.s 4XM e M._ 1.^ p M i #.i *.= P BXNXVXaXhXhXjXjX",
"sXsXNXNXAXkXjXNXH.e I.T.u.2 =.Z.Z.F.5.N.. l H B j @ -X'.|.9X;X9X] a ! s.s.x.n.b.y.t.e.].+.@X,X2XX.] 3 IXM Z _ ' / ,.g # i ~ _ -.; I BXNXVXaXhXhXjXjX",
"sXsXNXVXAXkXkXSXH.f U.j.c.T.6 2 6.>.1.Z.& V V . y w *Xa.w.).).;X2X2X{ X.O.u.f.x.b.r.{._.] @X_.>X9X4X..M q Z ) _ / 6 1 &.$.$.;.-.r I BXmXVXsXhXhXjXjX",
"hXsXVXVXjXkXlXSXJ f T.j.j.v.6 Y.9.( >.d $ q y + h p #X+Xs.l.y.t.[. X X9X%X[ Q >.>.T.d.g.+.`.].w.{.$X=XPX%.e n w p | p $.$.$.<.c % P HXNXsXiXhXhXhXhX",
"hXaXsXVXsXgXlXAXH.w g.v.j.v.W L.b.p.T.1.$ k C # ~ 8 5.7.h.v.r.0.t.e.).|.'.4.OX#X4.p X.4.+.@Xs.[.q.l.v.=Xm $ .Xa <.^ Q $.$.=.2 3 % K BXmXpXaXjXjXhXhX",
"hXaXpXNXpXjXjXBXH.q i 6 h.h.2 U.v.p.E.Y.# k B O x 4 Z a s g.'.v.v.l.s.s.v.O.+X2X9X>X>Xs i #XT.p.q.z.r.x.! | | ;./ ;.~ ~ 0 # K.$ * P BXmXsXaXhXaXhXhX",
"jXjXgXVXAXAXAXBXI ; D.5.&.~ p 6.U.h.E.Y.$ V l @ z 3 .XIX#X[ Q d.d.f.v.v.x.O.'.,X_.|.>X>X@X| ( 9.q.q.v.T.W ;.;.' ' ^ 4 g #.*.*.$ - I ZXNXSXaXhXiXhXhX",
"AXAXAXAXAXAXNXBXP j J.C.D.N.p Q o.>.d.L.4 k ; % t 4 5.#X:X2X&Xg.W ~ O.d.h.O.%X,Xe.t.l.l.%X1X2Xe.o.X. .A.g #.' ;.E 1.4 =.&.#.#.& % K BXNXVXsXjXjXhXhX",
"SXAXAXAXAXAXBXBXP j J.J.B.D.A.6.3. .^ Q O ; j H k h 6.a.s.}.=X$XQ 3X+X! [ ! `.:X{.q.r.j.{.s.|.|.3X1Xi a w =./ 7 ^ ^ } } ~ $.} + % P FXNXVXaXjXhXhXhX",
"AXAXAXAXAXAXAXBXI j V.K.=.=.A.5.Z.5.Z.Z.& V N k Z i >.h.l.r.j.p.@.IX1X1X1X] a 2.8.'.b.q.l.l.e.t.z.f.s IX%.O $.' ' ;.} $.$.~ 2 3 ; U FXNXVXaXhXiXhXjX",
"AXjXVXVXgXgXAXNXI j Z &.<.<.5.Z.G.Z.Z.S.O N H C c 8 &.g.h.v.v.i.o.'._.|.;X2XqX..{ X.9.p.p.s.[.r.j.R.i IXn 2.~ ;.' _ $.g _ 2 W.Z ; I BXyXpXaXhXiXhXjX",
"jXsXVXVXjXjXkXAXH.t OXh.( O./ <.G.A.M.B.@ N F k t w w w %.&.OX7.@.%Xw.w.t.}.%X%X9X'.i.[ o.>.i.v.j.v.a <Xn 2.=.;.' ^ 8 ~ _ ,.` Z = P BXmXpXsXhXhXhXhX",
"jXsXmXmXsXgXlXAXJ f g.p.v.v.p L.W W M.K.@ l = $ v t k r y q Z M 2.,Xs.q.z.z.q.[.[.|.2X1X:.Q [ W v.g.a IXn Z ~ ;.9 $.8 =.;._ -.c * P BXmXsXjXjXhXhXhX",
"sXsXmXmXsXhXzXAXI e $Xz.z.9.9 Y.f.T.7 ) $ r r # v t l N H B k @ q Z g.$Xj.0.b.r.z.r.l.$X3.OX2X`.a w n <Xn Z g 2 W | i &.~ $.) c % L BXNXSXjXjXhXhXhX",
"sXsXmXmXsXhXzXAXI w O.q.j.v.9 Y.v.j.T.Y.# x C $ c 5 % . - l H B B r w 4 u.u.T.x.j.b.x.h.o.@X>X>X2X.X..%.q 3 2 ,.' ^ ~ g $.~ g 1 % L BXNXSXaXjXhXhXhX",
"jXsXVXVXsXjXlXAXI & s U.! d.6 L.s.q.=XU.1 Z x O v 5 r ; * . * , F F H t f 4 #.=.U.U.T.d.[ '.w.w._.&X1X1Xs &.^ ' ' 1.p g d 4 ` 5 * P BXNXVXaXhXaXhXhX",
"jXjXVXVXjXAXkXAXK V =.5.$.$.1 Y.h.h.f.L.1 Z C + 5 t k l B l , o < < > H k k k 3 h i A.OX .@X{.t.l.l.b.=X! | ~ ;.' W 2 8 d m.m.$ * P BXNXVXaXjXhXhXhX",
"AXSXSXSXAXSXAXBXXX; V.B.D.Z.<.A.1 :.P.W.4 k   l l H H N B F o o < <     > B N B C & r y u D.U.j.b.0.b.f.s %.2.g 6 2 M.d <.) ` 3 = I FXNXVXaXjXhXhXhX",
"SXAXAXAXAXSXAXBXP - J XXC.K.D.N.G.=.8 W.O j F F F F N > - o < fXJXgXNX> - X > , > N N > * y #.L.u.T.P.U.g f 3 w ~ ^ $.$.` *.v O ; !.HXVXVXaXjXpXhXhX",
"AXAXAXAXAXAXAXAXnXT - - j H C.B.D.N.N.S.@ B F F F , < < D ^.sXhXAXAXVXNXnXL G , o - , F N j j x a =.=.F.#.h 1 Z.) #.-.*.t & j K FXSXSXsXpXgXhXjXjXjX",
"AXAXAXAXAXAXAXAXNX!.!.XX>   % J C.C.oXJ.@ B B F   < G yXSXsXdXjXpXgXAXSXDXDXNXyXL >   o - G l N k q 3 c 1 m.=.#.*.m.x @ = J ZXNXSXjXjXgXgXgXjXjXjXjX",
"AXAXgXgXgXgXgXSXSXNXnXZXZXXXN . % r J J % l o o > U KXAXyXjXGXiXhXgXjXpXpXpXNXNXNXFXBXK   o   F B C y k + *.*.Z c $ O H ZXFXnXyXAXjXjXgXjXjXjXjXjXjX",
"gXgXgXgXgXgXhXhXjXSXVXNXnXMXMXXXI > X -   < , yXAXDXDXSXgXpXjXjXfXhXhXhXpXpXjXSXSXyXNXHXNXyX, - X - ; H r H k r @ C XXZXMXNXSXSXgXjXjXjXjXjXjXSXjXjX",
"gXgXgXgXhXhXhXhXhXxXpXGXGXmXNXHXCXBXT G D Y AXDXDXpXyXSXLXSXgXgXgXhXjXhXjXjXjXjXpXsXVXVXdXdXNXFXG T o X X - . F H.XXBXBXAXgXgXSXgXgXjXjXjXSXSXSXgXjX",
"hXgXgXgXgXhXhXhXhXlXGXxXpXSXDXdXdXGXdXGXSXgXSXjXkXJXSXfXxXgXAXgXGXhXaXaXaXaXiXdXGXGXsXdXGXdXVX!.HXyXY L b T U ZXNXNXNXpXgXgXfXxXgXgXjXjXjXSXjXjXgXgX",
"hXgXhXgXgXhXhXhXhXfXlXgXGXgXAXAXdXsXhXhXhXhXkXfXkXxXkXLXGXiXpXLXhXaXiXaXjXcXGXcXiXiXaXdXsXsXsXsXSXgXSXSXpXSXpXpXsXsXhXlXlXlXlXbXgXjXjXjXjXjXjXjXjXjX",
"hXhXgXgXgXgXhXhXlXfXgXfXGXfXgXgXGXxXaXaXGXhXiXgXhXlXgXxXiXGXGXdXjXjXjXhXhXaXpXiXsXpXGXsXdXGXxXjXjXxXSXgXgXhXjXaXaXjXjXiXfXlXlXfXgXjXjXjXjXjXjXgXjXgX",
"jXjXjXjXgXjXgXgXlXlXlXkXkXkXkXgXjXsXsXjXjXjXjXhXhXhXhXaXaXaXaXaXaXjXjXjXjXjXsXsXjXsXaXaXaXsXsXjXgXgXgXgXgXhXhXhXhXhXhXhXhXgXjXjXjXjXjXjXjXjXjXjXjXjX",
"gXAXgXgXgXgXgXjXlXlXkXkXkXkXkXgXgXVXVXVXjXsXjXhXaXaXhXaXaXaXaXaXsXjXjXjXjXjXsXsXjXsXaXaXaXjXsXSXgXgXgXhXhXhXhXhXhXhXhXhXjXjXgXgXjXjXjXjXjXjXjXjXjXjX"
};
