/* XPM */
static char *beb9665f9f044794ba0453fdef197d60ZcdlzVyGeYyUExn0[] = {
/* columns rows colors chars-per-pixel */
"50 50 2 1 ",
"  c black",
". c white",
/* pixels */
"                                                  ",
"                                                  ",
"                                                  ",
"                                                  ",
"                                                  ",
"                 .....                            ",
"                 .....                            ",
"                 .....                            ",
"                 .....                            ",
"                 .....                            ",
"                 .....                            ",
"                 .....                            ",
"                 .....                            ",
"                 .....                            ",
"                 .....                            ",
"                 .....  ....                      ",
"                 .....  ....                      ",
"                 .....  ....  .....               ",
"                 .....  ....  .....               ",
"                 .....  ....  .....  ..           ",
"                 .....  ....  .....  ....         ",
"                 .....  ....  .....  ....         ",
"       ......    ..................  ....         ",
"       ......    ..................  ....         ",
"       ........  ........................         ",
"       ........  ........................         ",
"        .......  ........................         ",
"     .   ......  ........................         ",
"          .....  ........................         ",
"          ...............................         ",
"          ...............................         ",
"           ..............................         ",
"             ............................         ",
"             ............................         ",
"             ..........................           ",
"               ........................           ",
"               ........................           ",
"               ........................           ",
"               ........................           ",
"                 ......................           ",
"                 ....................             ",
"                 ....................             ",
"                 ....................             ",
"                                                  ",
"                                                  ",
"                                                  ",
"                                                  ",
"                                                  ",
"                                                  ",
"                                                  "
};
